<svg t="1743734977918" class="icon" viewBox="0 0 1024 1024" version="1.1" xmlns="http://www.w3.org/2000/svg" p-id="2596" width="200" height="200"><path d="M479.232 479.232V118.784c0-9.556992 3.072-17.408 9.216-23.552s13.995008-9.216 23.552-9.216 17.408 3.072 23.552 9.216 9.216 13.995008 9.216 23.552v360.448h360.448c9.556992 0 17.408 3.072 23.552 9.216s9.216 13.995008 9.216 23.552-3.072 17.408-9.216 23.552-13.995008 9.216-23.552 9.216H544.768v360.448c0 9.556992-3.072 17.408-9.216 23.552s-13.995008 9.216-23.552 9.216-17.408-3.072-23.552-9.216-9.216-13.995008-9.216-23.552V544.768H118.784c-9.556992 0-17.408-3.072-23.552-9.216s-9.216-13.995008-9.216-23.552 3.072-17.408 9.216-23.552 13.995008-9.216 23.552-9.216h360.448z" p-id="2597"></path></svg>